:SAMPLES-PER-SECOND 30
:FULLY-SPECIFIED
:DEGREES
1566
root  14.489 40.7675 12.8278 -176.696 76.017 -177.899
RightUpLeg  3.72822 -12.4945 -10.3786
RightLeg  5.25677 -27.7903 4.31157
RightFoot  1.37127 -0.605544 5.51535
RightToes  0.000481921 0.542163 -0.142578
Spine  7.20072 4.68748 6.02282
Spine1  2.60651 7.32915 -9.95818
HEad  -27.282 50.6849 -26.2354
LeftShoulder1  6.67247 -10.6067 -40.9695
LeftArm  -8.80328 19.2847 -20.3974
LeftForeArm  -163.737 -67.3153 -159.521
LeftHand  -0.25398 0.0180481 5.50724
RightShoulder  2.02001 4.67073 18.1796
RightArm  -20.6056 27.7861 20.0786
RightForeArm  57.046 74.2083 37.9981
RightHand  -1.72078 7.64523 -15.6972
LeftUpLeg  -1.82654 8.8385 10.552
LeftLeg  1.40942 14.4974 -3.50982
LeftFoot  5.01563 0.627438 -4.57815
LeftToes  1.06245e-005 4.65869e-005 -8.65517e-006
1567
root  14.2194 40.7605 12.852 -178.558 74.7161 -179.673
RightUpLeg  3.8002 -12.6046 -10.7438
RightLeg  5.12896 -28.9602 4.20397
RightFoot  1.32178 -0.595045 5.43938
RightToes  0.000481921 0.542163 -0.142578
Spine  8.0646 5.51735 10.0224
Spine1  3.15676 9.60715 -15.0498
HEad  -31.3235 58.0823 -31.7161
LeftShoulder1  6.88032 -11.0189 -41.0583
LeftArm  -10.889 13.0065 -21.5497
LeftForeArm  -162.671 -67.2851 -159.655
LeftHand  -0.25398 0.0180481 5.50724
RightShoulder  1.73869 4.57949 14.6931
RightArm  -22.1775 37.9547 16.6371
RightForeArm  31.401 47.2595 9.19317
RightHand  -1.31866 6.98693 -12.6022
LeftUpLeg  -2.25232 8.45397 9.91853
LeftLeg  1.00709 13.7156 -3.68104
LeftFoot  5.61442 0.604942 -4.28168
LeftToes  1.06245e-005 4.65869e-005 -8.65517e-006
1568
root  13.9958 40.7519 12.8508 179.908 74.0768 178.872
RightUpLeg  3.90304 -12.5802 -11.0783
RightLeg  4.73104 -29.5671 4.1453
RightFoot  1.33479 -0.582074 5.31811
RightToes  0.000481921 0.542163 -0.142578
Spine  9.12078 6.41503 14.3658
Spine1  3.50256 12.1984 -20.7155
HEad  -34.3728 62.8942 -36.3812
LeftShoulder1  7.03605 -11.5372 -40.5001
LeftArm  -11.7367 7.65414 -23.3868
LeftForeArm  -162.786 -67.2555 -159.675
LeftHand  -0.25398 0.0180481 5.50724
RightShoulder  1.42624 4.66941 10.2137
RightArm  -25.5273 45.77 15.4997
RightForeArm  31.2849 16.985 2.09291
RightHand  -0.577365 5.29078 -6.68063
LeftUpLeg  -2.47155 8.1139 9.34568
LeftLeg  0.713118 13.4845 -3.81986
LeftFoot  5.98319 0.594469 -4.10867
LeftToes  1.06245e-005 4.65869e-005 -8.65517e-006
1569
root  13.8357 40.7432 12.8344 178.837 73.5982 177.889
RightUpLeg  4.26498 -12.2205 -11.1248
RightLeg  3.79555 -30.3311 4.08402
RightFoot  1.43738 -0.571688 5.18874
RightToes  0.000481921 0.542163 -0.142578
Spine  10.6916 7.33294 18.1222
Spine1  3.02024 14.6466 -25.9008
HEad  -36.2191 65.2401 -39.5546
LeftShoulder1  6.97523 -11.7709 -39.4428
LeftArm  -10.838 3.30774 -25.7562
LeftForeArm  -162.44 -66.75 -160.187
LeftHand  -0.25398 0.0180481 5.50724
RightShoulder  1.07572 4.8288 5.10957
RightArm  -37.1651 47.3254 17.621
RightForeArm  34.8415 -3.01135 -1.20689
RightHand  -0.365981 3.63702 -5.27295
LeftUpLeg  -2.60159 7.79512 8.87728
LeftLeg  0.544327 13.3718 -3.84803
LeftFoot  6.14875 0.592351 -4.03582
LeftToes  1.06245e-005 4.65869e-005 -8.65517e-006
1570
root  13.7541 40.7364 12.8126 178.326 72.6633 177.323
RightUpLeg  4.78387 -11.6733 -10.9224
RightLeg  2.56356 -31.7526 4.04145
RightFoot  1.61214 -0.581374 5.21364
RightToes  0.000481921 0.542163 -0.142578
Spine  12.032 8.13998 20.0707
Spine1  1.84044 16.2234 -29.1622
HEad  -37.1524 66.3011 -40.9189
LeftShoulder1  6.77481 -11.583 -38.7217
LeftArm  -8.72973 0.631191 -28.0434
LeftForeArm  -160.159 -65.0029 -161.894
LeftHand  -0.25398 0.0180481 5.50724
RightShoulder  0.913066 4.82138 2.93133
RightArm  -43.6649 42.9176 22.2043
RightForeArm  21.3575 -3.7688 -3.86444
RightHand  -0.921436 3.69383 -11.3433
LeftUpLeg  -2.88698 7.4429 8.44675
LeftLeg  0.385434 12.8715 -3.78924
LeftFoot  6.27595 0.594854 -4.02682
LeftToes  1.06245e-005 4.65869e-005 -8.65517e-006
1571
root  13.7493 40.7325 12.7749 178.265 71.1988 177.067
RightUpLeg  5.23541 -11.3222 -10.7698
RightLeg  1.71633 -33.5394 4.05948
RightFoot  1.75314 -0.610028 5.41492
RightToes  0.000481921 0.542163 -0.142578
Spine  12.0724 8.772 19.9072
Spine1  1.15073 16.7371 -29.5746
HEad  -37.6769 66.9009 -41.298
LeftShoulder1  6.70031 -11.2292 -39.267
LeftArm  -6.74369 0.317503 -29.3694
LeftForeArm  -157.584 -61.9524 -164.337
LeftHand  -0.25398 0.0180481 5.50724
RightShoulder  1.13327 4.74381 6.04838
RightArm  -46.0102 36.4476 24.8531
RightForeArm  2.49287 9.73774 0.0559205
RightHand  -2.26945 8.78948 -19.068
LeftUpLeg  -3.28699 7.05251 8.01587
LeftLeg  0.155415 11.9131 -3.68747
LeftFoot  6.40608 0.599274 -4.0614
LeftToes  1.06245e-005 4.65869e-005 -8.65517e-006
